<?xml version="1.0" standalone="no"?>
<!DOCTYPE svg PUBLIC "-//W3C//DTD SVG 20010904//EN"
 "http://www.w3.org/TR/2001/REC-SVG-20010904/DTD/svg10.dtd">
<svg version="1.0" xmlns="http://www.w3.org/2000/svg"
 width="340.000000pt" height="270.000000pt" viewBox="0 0 340.000000 270.000000"
 preserveAspectRatio="xMidYMid meet">

<g transform="translate(0.000000,270.000000) scale(0.100000,-0.100000)"
fill="#000000" stroke="none">
<path d="M1619 2661 c-54 -30 -134 -123 -153 -178 -43 -125 -29 -299 34 -418
l38 -72 -67 -33 c-180 -88 -370 -218 -386 -262 -7 -20 94 -164 178 -254 51
-55 57 -66 57 -105 0 -42 28 -104 54 -121 6 -4 26 -8 43 -8 28 0 35 -5 47 -33
7 -19 27 -49 44 -69 l31 -35 -10 -144 c-6 -79 -12 -259 -13 -399 -3 -273 -6
-289 -58 -336 -12 -12 -51 -36 -85 -53 -71 -35 -92 -61 -66 -82 18 -16 223
-19 306 -6 46 8 47 9 47 46 0 20 -4 62 -10 92 -16 85 -27 450 -19 599 12 216
18 260 40 260 22 0 20 7 49 -205 27 -191 38 -344 39 -523 1 -123 -1 -136 -24
-180 -31 -59 -32 -86 0 -117 21 -22 33 -25 98 -25 61 0 80 4 108 23 52 35 51
53 -8 149 -19 31 -29 80 -53 270 -47 358 -48 367 -64 462 -24 137 -22 168 15
195 33 25 59 75 59 116 0 21 5 25 29 25 39 0 95 34 109 66 7 14 12 42 13 62 0
34 9 45 125 151 135 124 152 152 113 183 -95 75 -367 228 -405 228 -23 0 -16
15 18 34 99 59 190 176 212 275 45 196 -8 317 -172 398 -70 35 -83 38 -176 40
-85 3 -107 0 -137 -16z m214 -26 c114 -30 190 -84 228 -163 34 -70 33 -187 -2
-262 -53 -112 -191 -241 -249 -232 -25 4 -30 1 -30 -16 0 -20 47 -62 69 -62
22 0 228 -109 318 -169 63 -41 91 -65 87 -75 -6 -15 -135 -134 -217 -200 -36
-30 -51 -36 -59 -28 -16 16 -48 15 -48 -2 0 -7 7 -27 15 -42 8 -16 15 -37 15
-46 0 -27 19 -21 31 8 5 15 12 24 15 21 7 -6 -12 -44 -34 -69 -19 -22 -65 -23
-82 -3 -7 8 -13 41 -14 72 l-1 57 75 44 c107 63 233 148 255 172 17 19 17 21
0 40 -52 57 -292 192 -388 218 -32 9 -39 8 -45 -6 -14 -34 -4 -208 17 -307 13
-55 26 -137 31 -183 5 -46 16 -106 26 -133 18 -50 18 -51 -4 -92 -12 -23 -36
-51 -53 -62 -35 -24 -36 -7 12 -360 80 -588 76 -565 109 -617 16 -27 30 -55
30 -62 0 -19 -95 -58 -122 -51 -13 3 -34 14 -47 24 l-24 19 23 53 c22 51 23
63 21 254 -2 208 -6 260 -44 535 l-23 165 -63 3 -63 3 6 -37 c4 -20 2 -122 -5
-228 -11 -179 -3 -491 18 -678 5 -43 3 -48 -19 -52 -36 -8 -179 -12 -218 -6
l-34 5 59 32 c94 50 125 81 135 133 5 25 9 133 10 240 0 107 5 289 10 405 l10
209 -29 31 c-66 69 -80 141 -61 306 15 133 46 314 69 405 10 40 15 77 11 84
-19 31 -400 -205 -400 -248 0 -25 111 -134 198 -195 43 -31 72 -58 72 -69 0
-11 -5 -15 -15 -12 -8 4 -21 1 -29 -5 -11 -9 -29 5 -90 72 -87 96 -166 195
-166 209 0 24 206 164 350 237 58 30 107 55 109 58 3 2 -15 40 -38 84 -44 83
-81 200 -80 254 1 28 1 27 16 -13 16 -46 63 -85 48 -41 -4 13 -9 40 -12 59
l-5 35 35 -33 c24 -23 37 -30 42 -22 9 15 -24 61 -56 77 -21 11 -26 10 -43
-10 l-19 -22 5 45 c11 93 86 202 168 242 43 22 108 23 183 3z m-323 -778 c0
-7 -11 -66 -25 -132 -14 -66 -28 -148 -31 -182 -4 -35 -10 -63 -14 -63 -20 0
-230 183 -230 201 0 12 269 186 293 188 4 1 7 -5 7 -12z m447 -62 c72 -38 203
-129 203 -140 0 -14 -297 -191 -306 -183 -11 12 -54 271 -54 329 l0 69 38 -15
c20 -9 74 -36 119 -60z m-531 -541 c-9 -23 -23 -16 -45 20 -26 41 -27 56 -3
26 23 -28 44 -18 42 18 -1 15 -1 36 1 47 1 11 4 -6 6 -39 2 -32 2 -65 -1 -72z"/>
<path d="M1651 2546 c-17 -20 1 -28 44 -20 20 3 34 11 32 18 -6 17 -62 19 -76
2z"/>
<path d="M1745 2519 c-9 -13 -9 -13 38 -26 28 -9 37 -8 37 1 0 30 -60 50 -75
25z"/>
<path d="M1659 2459 c-16 -31 3 -69 35 -69 14 0 28 5 31 10 5 8 11 7 20 0 8
-6 24 -10 37 -8 20 3 23 9 23 43 0 34 -3 40 -23 43 -13 2 -29 -2 -37 -8 -9 -7
-15 -8 -20 0 -11 18 -54 11 -66 -11z"/>
<path d="M1937 2340 c-31 -24 -37 -56 -9 -46 30 11 -41 -43 -86 -65 -99 -49
-192 -32 -261 49 -43 50 -61 51 -41 2 16 -39 69 -85 116 -100 77 -26 214 8
276 67 26 25 27 25 21 3 -5 -18 -2 -21 13 -18 26 5 66 67 62 98 -4 34 -53 40
-91 10z m50 -34 c-4 -10 -13 -13 -23 -9 -15 6 -15 7 1 20 21 15 30 10 22 -11z"/>
<path d="M1550 2095 c0 -23 46 -62 78 -67 43 -6 112 11 112 28 0 12 -8 13 -37
8 -21 -4 -40 -8 -41 -10 -9 -7 -64 20 -73 37 -12 23 -39 25 -39 4z"/>
</g>
</svg>
